<?xml version="1.0" encoding="UTF-8" standalone="no"?>
<!DOCTYPE svg PUBLIC "-//W3C//DTD SVG 1.1//EN"
 "http://www.w3.org/Graphics/SVG/1.1/DTD/svg11.dtd">
<!-- Generated by graphviz version 14.1.3 (20260303.0454)
 -->
<!-- Title: G Pages: 1 -->
<svg width="992pt" height="234pt"
 viewBox="0.00 0.00 992.00 234.00" xmlns="http://www.w3.org/2000/svg" xmlns:xlink="http://www.w3.org/1999/xlink">
<g id="graph0" class="graph" transform="scale(1 1) rotate(0) translate(21.6 212.35)">
<title>G</title>
<polygon fill="#111111" stroke="none" points="-21.6,21.6 -21.6,-212.35 970.1,-212.35 970.1,21.6 -21.6,21.6"/>
<!-- App.jsx -->
<g id="node1" class="node">
<title>App.jsx</title>
<path fill="none" stroke="#c6c5fe" d="M52.33,-127.75C52.33,-127.75 7.92,-127.75 7.92,-127.75 3.96,-127.75 0,-123.79 0,-119.83 0,-119.83 0,-111.92 0,-111.92 0,-107.96 3.96,-104 7.92,-104 7.92,-104 52.33,-104 52.33,-104 56.29,-104 60.25,-107.96 60.25,-111.92 60.25,-111.92 60.25,-119.83 60.25,-119.83 60.25,-123.79 56.29,-127.75 52.33,-127.75"/>
<text xml:space="preserve" text-anchor="middle" x="30.12" y="-110.45" font-family="Arial" font-size="14.00" fill="#c6c5fe">App.jsx</text>
</g>
<!-- components/ConfigureView.jsx -->
<g id="node2" class="node">
<title>components/ConfigureView.jsx</title>
<path fill="none" stroke="#cfffac" d="M294.08,-190.75C294.08,-190.75 108.67,-190.75 108.67,-190.75 104.71,-190.75 100.75,-186.79 100.75,-182.83 100.75,-182.83 100.75,-174.92 100.75,-174.92 100.75,-170.96 104.71,-167 108.67,-167 108.67,-167 294.08,-167 294.08,-167 298.04,-167 302,-170.96 302,-174.92 302,-174.92 302,-182.83 302,-182.83 302,-186.79 298.04,-190.75 294.08,-190.75"/>
<text xml:space="preserve" text-anchor="middle" x="201.38" y="-173.45" font-family="Arial" font-size="14.00" fill="#cfffac">components/ConfigureView.jsx</text>
</g>
<!-- App.jsx&#45;&gt;components/ConfigureView.jsx -->
<g id="edge1" class="edge">
<title>App.jsx&#45;&gt;components/ConfigureView.jsx</title>
<path fill="none" stroke="#757575" d="M46.53,-128.19C59.17,-137.69 77.93,-150.43 96.25,-157.88 101.22,-159.89 106.41,-161.73 111.69,-163.39"/>
<polygon fill="#757575" stroke="#757575" points="110.62,-166.72 121.2,-166.14 112.57,-160 110.62,-166.72"/>
</g>
<!-- components/UploadView.jsx -->
<g id="node3" class="node">
<title>components/UploadView.jsx</title>
<path fill="none" stroke="#cfffac" d="M286.21,-148.75C286.21,-148.75 116.54,-148.75 116.54,-148.75 112.58,-148.75 108.62,-144.79 108.62,-140.83 108.62,-140.83 108.62,-132.92 108.62,-132.92 108.62,-128.96 112.58,-125 116.54,-125 116.54,-125 286.21,-125 286.21,-125 290.17,-125 294.12,-128.96 294.12,-132.92 294.12,-132.92 294.12,-140.83 294.12,-140.83 294.12,-144.79 290.17,-148.75 286.21,-148.75"/>
<text xml:space="preserve" text-anchor="middle" x="201.38" y="-131.45" font-family="Arial" font-size="14.00" fill="#cfffac">components/UploadView.jsx</text>
</g>
<!-- App.jsx&#45;&gt;components/UploadView.jsx -->
<g id="edge2" class="edge">
<title>App.jsx&#45;&gt;components/UploadView.jsx</title>
<path fill="none" stroke="#757575" d="M60.61,-119.53C71.19,-120.85 83.8,-122.41 97.07,-124.06"/>
<polygon fill="#757575" stroke="#757575" points="96.47,-127.51 106.83,-125.27 97.33,-120.56 96.47,-127.51"/>
</g>
<!-- components/WorkspaceView.jsx -->
<g id="node4" class="node">
<title>components/WorkspaceView.jsx</title>
<path fill="none" stroke="#c6c5fe" d="M298.58,-106.75C298.58,-106.75 104.17,-106.75 104.17,-106.75 100.21,-106.75 96.25,-102.79 96.25,-98.83 96.25,-98.83 96.25,-90.92 96.25,-90.92 96.25,-86.96 100.21,-83 104.17,-83 104.17,-83 298.58,-83 298.58,-83 302.54,-83 306.5,-86.96 306.5,-90.92 306.5,-90.92 306.5,-98.83 306.5,-98.83 306.5,-102.79 302.54,-106.75 298.58,-106.75"/>
<text xml:space="preserve" text-anchor="middle" x="201.38" y="-89.45" font-family="Arial" font-size="14.00" fill="#c6c5fe">components/WorkspaceView.jsx</text>
</g>
<!-- App.jsx&#45;&gt;components/WorkspaceView.jsx -->
<g id="edge3" class="edge">
<title>App.jsx&#45;&gt;components/WorkspaceView.jsx</title>
<path fill="none" stroke="#757575" d="M60.61,-112.22C69.18,-111.15 79.1,-109.92 89.61,-108.62"/>
<polygon fill="#757575" stroke="#757575" points="89.75,-112.13 99.24,-107.42 88.89,-105.18 89.75,-112.13"/>
</g>
<!-- hooks/usePersistentStorage.js -->
<g id="node5" class="node">
<title>hooks/usePersistentStorage.js</title>
<path fill="none" stroke="#cfffac" d="M292.58,-64.75C292.58,-64.75 110.17,-64.75 110.17,-64.75 106.21,-64.75 102.25,-60.79 102.25,-56.83 102.25,-56.83 102.25,-48.92 102.25,-48.92 102.25,-44.96 106.21,-41 110.17,-41 110.17,-41 292.58,-41 292.58,-41 296.54,-41 300.5,-44.96 300.5,-48.92 300.5,-48.92 300.5,-56.83 300.5,-56.83 300.5,-60.79 296.54,-64.75 292.58,-64.75"/>
<text xml:space="preserve" text-anchor="middle" x="201.38" y="-47.45" font-family="Arial" font-size="14.00" fill="#cfffac">hooks/usePersistentStorage.js</text>
</g>
<!-- App.jsx&#45;&gt;hooks/usePersistentStorage.js -->
<g id="edge4" class="edge">
<title>App.jsx&#45;&gt;hooks/usePersistentStorage.js</title>
<path fill="none" stroke="#757575" d="M46.53,-103.56C59.17,-94.06 77.93,-81.32 96.25,-73.88 101.22,-71.86 106.41,-70.02 111.69,-68.36"/>
<polygon fill="#757575" stroke="#757575" points="112.57,-71.75 121.2,-65.61 110.62,-65.03 112.57,-71.75"/>
</g>
<!-- components/ExportModal.jsx -->
<g id="node6" class="node">
<title>components/ExportModal.jsx</title>
<path fill="none" stroke="#cfffac" d="M535.46,-169.75C535.46,-169.75 360.54,-169.75 360.54,-169.75 356.58,-169.75 352.62,-165.79 352.62,-161.83 352.62,-161.83 352.62,-153.92 352.62,-153.92 352.62,-149.96 356.58,-146 360.54,-146 360.54,-146 535.46,-146 535.46,-146 539.42,-146 543.38,-149.96 543.38,-153.92 543.38,-153.92 543.38,-161.83 543.38,-161.83 543.38,-165.79 539.42,-169.75 535.46,-169.75"/>
<text xml:space="preserve" text-anchor="middle" x="448" y="-152.45" font-family="Arial" font-size="14.00" fill="#cfffac">components/ExportModal.jsx</text>
</g>
<!-- components/WorkspaceView.jsx&#45;&gt;components/ExportModal.jsx -->
<g id="edge5" class="edge">
<title>components/WorkspaceView.jsx&#45;&gt;components/ExportModal.jsx</title>
<path fill="none" stroke="#757575" d="M278.56,-107.2C288.1,-109.63 297.62,-112.5 306.5,-115.88 323.81,-122.46 325.19,-130.29 342.5,-136.88 348.07,-138.99 353.89,-140.91 359.81,-142.64"/>
<polygon fill="#757575" stroke="#757575" points="358.51,-145.91 369.08,-145.17 360.35,-139.16 358.51,-145.91"/>
</g>
<!-- components/IgnoreListModal.jsx -->
<g id="node7" class="node">
<title>components/IgnoreListModal.jsx</title>
<path fill="none" stroke="#cfffac" d="M545.58,-127.75C545.58,-127.75 350.42,-127.75 350.42,-127.75 346.46,-127.75 342.5,-123.79 342.5,-119.83 342.5,-119.83 342.5,-111.92 342.5,-111.92 342.5,-107.96 346.46,-104 350.42,-104 350.42,-104 545.58,-104 545.58,-104 549.54,-104 553.5,-107.96 553.5,-111.92 553.5,-111.92 553.5,-119.83 553.5,-119.83 553.5,-123.79 549.54,-127.75 545.58,-127.75"/>
<text xml:space="preserve" text-anchor="middle" x="448" y="-110.45" font-family="Arial" font-size="14.00" fill="#cfffac">components/IgnoreListModal.jsx</text>
</g>
<!-- components/WorkspaceView.jsx&#45;&gt;components/IgnoreListModal.jsx -->
<g id="edge6" class="edge">
<title>components/WorkspaceView.jsx&#45;&gt;components/IgnoreListModal.jsx</title>
<path fill="none" stroke="#757575" d="M306.83,-103.84C314.77,-104.52 322.82,-105.21 330.83,-105.9"/>
<polygon fill="#757575" stroke="#757575" points="330.35,-109.37 340.61,-106.74 330.95,-102.4 330.35,-109.37"/>
</g>
<!-- components/StatsPanel.jsx -->
<g id="node8" class="node">
<title>components/StatsPanel.jsx</title>
<path fill="none" stroke="#cfffac" d="M529.83,-85.75C529.83,-85.75 366.17,-85.75 366.17,-85.75 362.21,-85.75 358.25,-81.79 358.25,-77.83 358.25,-77.83 358.25,-69.92 358.25,-69.92 358.25,-65.96 362.21,-62 366.17,-62 366.17,-62 529.83,-62 529.83,-62 533.79,-62 537.75,-65.96 537.75,-69.92 537.75,-69.92 537.75,-77.83 537.75,-77.83 537.75,-81.79 533.79,-85.75 529.83,-85.75"/>
<text xml:space="preserve" text-anchor="middle" x="448" y="-68.45" font-family="Arial" font-size="14.00" fill="#cfffac">components/StatsPanel.jsx</text>
</g>
<!-- components/WorkspaceView.jsx&#45;&gt;components/StatsPanel.jsx -->
<g id="edge7" class="edge">
<title>components/WorkspaceView.jsx&#45;&gt;components/StatsPanel.jsx</title>
<path fill="none" stroke="#757575" d="M306.83,-85.91C319.99,-84.78 333.42,-83.62 346.52,-82.5"/>
<polygon fill="#757575" stroke="#757575" points="346.75,-85.99 356.41,-81.65 346.15,-79.02 346.75,-85.99"/>
</g>
<!-- hooks/useNerEngine.js -->
<g id="node9" class="node">
<title>hooks/useNerEngine.js</title>
<path fill="none" stroke="#c6c5fe" d="M517.46,-43.75C517.46,-43.75 378.54,-43.75 378.54,-43.75 374.58,-43.75 370.62,-39.79 370.62,-35.83 370.62,-35.83 370.62,-27.92 370.62,-27.92 370.62,-23.96 374.58,-20 378.54,-20 378.54,-20 517.46,-20 517.46,-20 521.42,-20 525.38,-23.96 525.38,-27.92 525.38,-27.92 525.38,-35.83 525.38,-35.83 525.38,-39.79 521.42,-43.75 517.46,-43.75"/>
<text xml:space="preserve" text-anchor="middle" x="448" y="-26.45" font-family="Arial" font-size="14.00" fill="#c6c5fe">hooks/useNerEngine.js</text>
</g>
<!-- components/WorkspaceView.jsx&#45;&gt;hooks/useNerEngine.js -->
<g id="edge8" class="edge">
<title>components/WorkspaceView.jsx&#45;&gt;hooks/useNerEngine.js</title>
<path fill="none" stroke="#757575" d="M278.56,-82.55C288.1,-80.12 297.62,-77.25 306.5,-73.88 323.81,-67.29 325.19,-59.46 342.5,-52.88 348.07,-50.76 353.89,-48.84 359.81,-47.11"/>
<polygon fill="#757575" stroke="#757575" points="360.35,-50.59 369.08,-44.58 358.51,-43.84 360.35,-50.59"/>
</g>
<!-- services/ignoreList.js -->
<g id="node10" class="node">
<title>services/ignoreList.js</title>
<path fill="none" stroke="#cfffac" d="M724.33,-85.75C724.33,-85.75 598.92,-85.75 598.92,-85.75 594.96,-85.75 591,-81.79 591,-77.83 591,-77.83 591,-69.92 591,-69.92 591,-65.96 594.96,-62 598.92,-62 598.92,-62 724.33,-62 724.33,-62 728.29,-62 732.25,-65.96 732.25,-69.92 732.25,-69.92 732.25,-77.83 732.25,-77.83 732.25,-81.79 728.29,-85.75 724.33,-85.75"/>
<text xml:space="preserve" text-anchor="middle" x="661.62" y="-68.45" font-family="Arial" font-size="14.00" fill="#cfffac">services/ignoreList.js</text>
</g>
<!-- hooks/useNerEngine.js&#45;&gt;services/ignoreList.js -->
<g id="edge9" class="edge">
<title>hooks/useNerEngine.js&#45;&gt;services/ignoreList.js</title>
<path fill="none" stroke="#757575" d="M511.35,-44.25C535.14,-48.97 562.48,-54.4 587.2,-59.3"/>
<polygon fill="#757575" stroke="#757575" points="586.38,-62.71 596.87,-61.22 587.74,-55.84 586.38,-62.71"/>
</g>
<!-- services/nerEngine.js -->
<g id="node11" class="node">
<title>services/nerEngine.js</title>
<path fill="none" stroke="#c6c5fe" d="M725.83,-43.75C725.83,-43.75 597.42,-43.75 597.42,-43.75 593.46,-43.75 589.5,-39.79 589.5,-35.83 589.5,-35.83 589.5,-27.92 589.5,-27.92 589.5,-23.96 593.46,-20 597.42,-20 597.42,-20 725.83,-20 725.83,-20 729.79,-20 733.75,-23.96 733.75,-27.92 733.75,-27.92 733.75,-35.83 733.75,-35.83 733.75,-39.79 729.79,-43.75 725.83,-43.75"/>
<text xml:space="preserve" text-anchor="middle" x="661.62" y="-26.45" font-family="Arial" font-size="14.00" fill="#c6c5fe">services/nerEngine.js</text>
</g>
<!-- hooks/useNerEngine.js&#45;&gt;services/nerEngine.js -->
<g id="edge10" class="edge">
<title>hooks/useNerEngine.js&#45;&gt;services/nerEngine.js</title>
<path fill="none" stroke="#757575" d="M525.7,-31.88C542.68,-31.88 560.75,-31.88 577.95,-31.88"/>
<polygon fill="#757575" stroke="#757575" points="577.6,-35.38 587.6,-31.88 577.6,-28.38 577.6,-35.38"/>
</g>
<!-- services/shadowMemory.js -->
<g id="node12" class="node">
<title>services/shadowMemory.js</title>
<path fill="none" stroke="#cfffac" d="M940.58,-23.75C940.58,-23.75 777.67,-23.75 777.67,-23.75 773.71,-23.75 769.75,-19.79 769.75,-15.83 769.75,-15.83 769.75,-7.92 769.75,-7.92 769.75,-3.96 773.71,0 777.67,0 777.67,0 940.58,0 940.58,0 944.54,0 948.5,-3.96 948.5,-7.92 948.5,-7.92 948.5,-15.83 948.5,-15.83 948.5,-19.79 944.54,-23.75 940.58,-23.75"/>
<text xml:space="preserve" text-anchor="middle" x="859.12" y="-6.45" font-family="Arial" font-size="14.00" fill="#cfffac">services/shadowMemory.js</text>
</g>
<!-- hooks/useNerEngine.js&#45;&gt;services/shadowMemory.js -->
<g id="edge11" class="edge">
<title>hooks/useNerEngine.js&#45;&gt;services/shadowMemory.js</title>
<path fill="none" stroke="#757575" d="M517.73,-19.52C540.49,-15.99 566.01,-12.62 589.5,-10.88 653.43,-6.12 669.64,-10.62 733.75,-10.88 741.69,-10.91 749.92,-10.95 758.19,-11"/>
<polygon fill="#757575" stroke="#757575" points="757.92,-14.5 767.95,-11.07 757.97,-7.5 757.92,-14.5"/>
</g>
<!-- services/nerEngine.js&#45;&gt;services/shadowMemory.js -->
<g id="edge12" class="edge">
<title>services/nerEngine.js&#45;&gt;services/shadowMemory.js</title>
<path fill="none" stroke="#757575" d="M734.03,-24.57C741.82,-23.77 749.84,-22.95 757.89,-22.13"/>
<polygon fill="#757575" stroke="#757575" points="758.16,-25.62 767.76,-21.12 757.45,-18.66 758.16,-25.62"/>
</g>
</g>
</svg>
